<?xml version="1.0" encoding="utf-8"?>
<!-- Generator: Adobe Illustrator 16.0.0, SVG Export Plug-In . SVG Version: 6.00 Build 0)  -->
<!DOCTYPE svg PUBLIC "-//W3C//DTD SVG 1.1//EN" "http://www.w3.org/Graphics/SVG/1.1/DTD/svg11.dtd">
<svg version="1.1" xmlns="http://www.w3.org/2000/svg" xmlns:xlink="http://www.w3.org/1999/xlink" x="0px" y="0px"
	 width="421.479px" height="433.478px" viewBox="0 0 421.479 433.478" enable-background="new 0 0 421.479 433.478"
	 xml:space="preserve">
<pattern  x="-187.1" y="-176.602" width="314.984" height="314.984" patternUnits="userSpaceOnUse" id="Unnamed_Pattern_2" viewBox="0 -314.984 314.984 314.984" overflow="visible">
	<g>
		<polygon fill="none" points="0,0 314.984,0 314.984,-314.984 0,-314.984 		"/>
		<polygon fill="#FFFFFF" points="314.984,0 0,0 0,-314.984 314.984,-314.984 		"/>
	</g>
</pattern>
<g id="Background">
</g>
<g id="Objects">
	<g>
		<g>
			<g>
				<g>
					<g>
						<path fill="#2F4E9D" d="M126.793,72c0,0-0.181,0.105-0.496,0.289c-0.312,0.19-0.777,0.429-1.296,0.778
							c-1.053,0.678-2.457,1.581-3.86,2.484c-0.702,0.451-1.403,0.903-2.062,1.326c-0.649,0.437-1.237,0.871-1.75,1.229
							c-1.021,0.724-1.702,1.207-1.702,1.207l-1.509-2.125c0,0,0.691-0.49,1.728-1.225c0.521-0.364,1.118-0.804,1.776-1.248
							c0.668-0.43,1.38-0.889,2.093-1.347c1.425-0.917,2.85-1.833,3.919-2.521c0.528-0.354,1-0.598,1.316-0.791
							c0.321-0.187,0.504-0.293,0.504-0.293L126.793,72z"/>
						<path fill="none" d="M131.961,73.583c0,0-1.096,0.637-2.74,1.593c-1.67,0.914-3.773,2.334-5.912,3.695
							c-2.161,1.33-4.197,2.845-5.754,3.937c-1.552,1.099-2.587,1.832-2.587,1.832l-6.287-8.459c0,0,1.099-0.78,2.747-1.95
							c1.654-1.161,3.821-2.766,6.116-4.183c2.272-1.449,4.51-2.953,6.284-3.928c1.748-1.016,2.913-1.693,2.913-1.693
							L131.961,73.583z"/>
					</g>
					<g>
						<path fill="#2F4E9D" d="M145.203,62.425c0,0-3.026,1.409-6.052,2.817c-2.961,1.542-5.922,3.083-5.922,3.083l-1.242-2.292
							c0,0,3.006-1.565,6.012-3.129c3.072-1.431,6.145-2.861,6.145-2.861L145.203,62.425z"/>
						<path fill="none" d="M150.146,64.637c0,0-0.293,0.121-0.806,0.331c-0.509,0.219-1.254,0.492-2.117,0.891
							c-1.724,0.803-4.022,1.873-6.32,2.942c-2.249,1.171-4.498,2.342-6.184,3.22c-0.852,0.424-1.52,0.853-2.004,1.124
							c-0.479,0.279-0.753,0.438-0.753,0.438l-5.22-9.156c0,0,0.291-0.169,0.801-0.465c0.515-0.288,1.226-0.741,2.13-1.194
							c1.793-0.934,4.184-2.178,6.575-3.423c2.444-1.138,4.888-2.276,6.72-3.129c0.918-0.424,1.709-0.716,2.251-0.949
							c0.545-0.225,0.857-0.353,0.857-0.353L150.146,64.637z"/>
					</g>
					<g>
						<path fill="#2F4E9D" d="M164.651,55.196c0,0-0.798,0.245-1.994,0.611c-0.599,0.184-1.296,0.398-2.044,0.628
							c-0.737,0.264-1.522,0.545-2.308,0.827c-1.571,0.563-3.143,1.125-4.321,1.547c-0.592,0.202-1.075,0.399-1.412,0.542
							c-0.337,0.139-0.53,0.218-0.53,0.218l-0.954-2.426c0,0,0.196-0.081,0.539-0.221c0.342-0.145,0.832-0.345,1.434-0.55
							c1.196-0.429,2.792-1,4.387-1.571c0.798-0.285,1.596-0.571,2.343-0.838c0.759-0.234,1.468-0.452,2.075-0.639
							c1.215-0.373,2.025-0.621,2.025-0.621L164.651,55.196z"/>
						<path fill="none" d="M169.268,57.928c0,0-1.211,0.372-3.029,0.93c-1.812,0.574-4.26,1.244-6.629,2.15
							c-2.378,0.877-4.795,1.651-6.534,2.424c-1.758,0.723-2.931,1.205-2.931,1.205l-4.07-9.722c0,0,1.247-0.512,3.117-1.281
							c1.851-0.817,4.419-1.649,6.949-2.579c2.521-0.959,5.123-1.679,7.05-2.287c1.934-0.592,3.223-0.986,3.223-0.986
							L169.268,57.928z"/>
					</g>
				</g>
			</g>
		</g>
		<g>
			<g>
				<g>
					<g>
						<path fill="#2F4E9D" d="M53.247,161.754c0,0-1.195,3.469-2.389,6.938c-0.96,3.541-1.92,7.083-1.92,7.083l-2.522-0.657
							c0,0,0.976-3.596,1.951-7.191c1.212-3.522,2.424-7.045,2.424-7.045L53.247,161.754z"/>
						<path fill="none" d="M58.281,159.321c0,0-1.816,5.268-3.631,10.537c-1.459,5.378-2.917,10.756-2.917,10.756l-10.261-2.412
							c0,0,1.552-5.72,3.103-11.44c1.931-5.603,3.862-11.207,3.862-11.207L58.281,159.321z"/>
					</g>
					<g>
						<path fill="#2F4E9D" d="M62.302,140.83c0,0-1.647,3.279-3.294,6.558c-1.428,3.38-2.855,6.76-2.855,6.76l-2.412-0.99
							c0,0,1.45-3.432,2.9-6.863c1.671-3.329,3.343-6.658,3.343-6.658L62.302,140.83z"/>
						<path fill="none" d="M67.615,139.091c0,0-2.503,4.979-5.005,9.959c-2.165,5.135-4.329,10.271-4.329,10.271l-9.844-3.767
							c0,0,2.302-5.461,4.604-10.922c2.661-5.294,5.322-10.589,5.322-10.589L67.615,139.091z"/>
					</g>
				</g>
			</g>
		</g>
		<g>
			<g>
				<g>
					<g>
						<path fill="#2F4E9D" d="M60.655,293.773c0,0,0.09,0.19,0.248,0.524c0.166,0.329,0.365,0.818,0.67,1.373
							c0.593,1.117,1.382,2.607,2.172,4.098c0.395,0.745,0.79,1.49,1.16,2.188c0.382,0.692,0.771,1.319,1.088,1.867
							c0.643,1.089,1.071,1.815,1.071,1.815l-2.245,1.326c0,0-0.435-0.737-1.087-1.844c-0.322-0.556-0.716-1.193-1.104-1.896
							c-0.376-0.709-0.777-1.465-1.178-2.222c-0.802-1.513-1.604-3.025-2.205-4.16c-0.31-0.563-0.513-1.06-0.681-1.395
							c-0.16-0.338-0.252-0.531-0.252-0.531L60.655,293.773z"/>
						<path fill="none" d="M62.656,288.724c0,0,0.547,1.158,1.368,2.895c0.776,1.76,2.023,4,3.214,6.268
							c1.154,2.289,2.505,4.468,3.473,6.128c0.975,1.655,1.625,2.759,1.625,2.759l-8.955,5.559c0,0-0.692-1.173-1.73-2.932
							c-1.03-1.764-2.461-4.083-3.692-6.514c-1.268-2.411-2.587-4.795-3.417-6.664c-0.873-1.847-1.455-3.078-1.455-3.078
							L62.656,288.724z"/>
					</g>
					<g>
						<path fill="#2F4E9D" d="M52.612,274.411c0,0,1.155,3.169,2.31,6.338c1.294,3.114,2.589,6.229,2.589,6.229l-2.39,1.041
							c0,0-1.314-3.162-2.628-6.324c-1.173-3.218-2.345-6.436-2.345-6.436L52.612,274.411z"/>
						<path fill="none" d="M55.236,269.642c0,0,0.364,1.229,0.971,3.05c0.657,1.806,1.534,4.212,2.411,6.618
							c0.983,2.365,1.967,4.73,2.704,6.504c0.354,0.894,0.723,1.605,0.956,2.114c0.24,0.507,0.377,0.796,0.377,0.796l-9.568,4.42
							c0,0-0.146-0.308-0.4-0.847c-0.249-0.541-0.638-1.299-1.016-2.249c-0.784-1.886-1.83-4.401-2.875-6.916
							c-0.933-2.56-1.866-5.119-2.565-7.038c-0.646-1.938-1.036-3.244-1.035-3.244L55.236,269.642z"/>
					</g>
					<g>
						<path fill="#2F4E9D" d="M47.059,254.195c0,0,0.175,0.825,0.438,2.063c0.132,0.618,0.285,1.34,0.449,2.113
							c0.2,0.765,0.414,1.58,0.628,2.396c0.427,1.631,0.854,3.263,1.175,4.486c0.151,0.614,0.303,1.118,0.419,1.469
							c0.11,0.353,0.173,0.554,0.173,0.554l-2.5,0.738c0,0-0.064-0.204-0.176-0.562c-0.117-0.356-0.271-0.869-0.425-1.492
							c-0.326-1.242-0.76-2.898-1.193-4.556c-0.217-0.828-0.434-1.656-0.637-2.433c-0.167-0.785-0.323-1.518-0.456-2.146
							c-0.267-1.257-0.445-2.094-0.445-2.094L47.059,254.195z"/>
						<path fill="none" d="M50.18,249.8c0,0,0.266,1.253,0.666,3.132c0.417,1.874,0.87,4.398,1.573,6.863
							c0.675,2.47,1.234,4.974,1.861,6.791c0.573,1.834,0.956,3.056,0.956,3.056l-10.04,3.208c0,0-0.406-1.3-1.016-3.25
							c-0.662-1.936-1.265-4.596-1.98-7.224c-0.744-2.623-1.232-5.306-1.674-7.3c-0.424-1.999-0.706-3.331-0.706-3.331L50.18,249.8z
							"/>
					</g>
				</g>
			</g>
		</g>
		<g>
			<g>
				<g>
					<g>
						<path fill="#2F4E9D" d="M159.974,381.083c0,0,0.205,0.073,0.564,0.2c0.357,0.133,0.873,0.312,1.501,0.49
							c1.252,0.378,2.921,0.881,4.59,1.384c0.834,0.252,1.669,0.504,2.451,0.739c0.793,0.198,1.533,0.383,2.167,0.541
							c1.269,0.316,2.114,0.527,2.114,0.527l-0.626,2.53c0,0-0.859-0.214-2.147-0.535c-0.644-0.161-1.396-0.349-2.2-0.55
							c-0.794-0.239-1.642-0.495-2.489-0.75c-1.695-0.512-3.39-1.022-4.661-1.406c-0.639-0.182-1.162-0.362-1.525-0.497
							c-0.365-0.13-0.573-0.204-0.573-0.204L159.974,381.083z"/>
						<path fill="none" d="M157.677,376.058c0,0,1.248,0.442,3.119,1.107c1.853,0.721,4.418,1.392,6.944,2.184
							c2.519,0.821,5.111,1.379,7.032,1.878c1.927,0.481,3.211,0.802,3.211,0.802l-2.299,10.287c0,0-1.367-0.341-3.416-0.851
							c-2.044-0.529-4.799-1.129-7.48-1.998c-2.688-0.839-5.414-1.562-7.386-2.323c-1.99-0.706-3.317-1.177-3.317-1.177
							L157.677,376.058z"/>
					</g>
					<g>
						<path fill="#2F4E9D" d="M139.917,372.867c0,0,3.162,1.47,6.324,2.939c3.226,1.322,6.452,2.646,6.452,2.646l-0.944,2.43
							c0,0-3.275-1.343-6.551-2.687c-3.21-1.492-6.42-2.984-6.42-2.984L139.917,372.867z"/>
						<path fill="none" d="M138.277,367.595c0,0,0.293,0.154,0.806,0.424c0.516,0.263,1.233,0.679,2.142,1.081
							c1.801,0.837,4.202,1.954,6.603,3.07c2.45,1.005,4.9,2.009,6.737,2.763c0.921,0.37,1.711,0.618,2.254,0.82
							c0.546,0.193,0.857,0.305,0.857,0.305l-3.592,9.909c0,0-0.332-0.118-0.912-0.324c-0.577-0.215-1.417-0.481-2.397-0.875
							c-1.954-0.801-4.56-1.869-7.165-2.938c-2.553-1.188-5.106-2.374-7.021-3.265c-0.965-0.43-1.729-0.869-2.278-1.148
							c-0.545-0.286-0.857-0.45-0.857-0.45L138.277,367.595z"/>
					</g>
					<g>
						<path fill="#2F4E9D" d="M121.076,362.157c0,0,0.73,0.477,1.825,1.191c0.55,0.353,1.18,0.784,1.876,1.212
							c0.705,0.414,1.456,0.855,2.208,1.297c1.503,0.884,3.006,1.768,4.133,2.43c0.558,0.343,1.055,0.569,1.388,0.755
							c0.338,0.178,0.531,0.279,0.531,0.279l-1.245,2.29c0,0-0.196-0.103-0.538-0.283c-0.338-0.188-0.843-0.419-1.409-0.767
							c-1.145-0.672-2.67-1.569-4.196-2.466c-0.763-0.449-1.526-0.897-2.241-1.318c-0.707-0.434-1.347-0.871-1.905-1.229
							c-1.112-0.726-1.853-1.209-1.853-1.209L121.076,362.157z"/>
						<path fill="none" d="M120.08,356.771c0,0,1.109,0.723,2.773,1.809c1.669,1.077,3.854,2.577,6.167,3.872
							c2.289,1.332,4.543,2.726,6.328,3.603c1.758,0.925,2.93,1.541,2.93,1.541l-4.822,9.372c0,0-1.246-0.655-3.115-1.638
							c-1.895-0.938-4.294-2.412-6.727-3.83c-2.456-1.38-4.782-2.97-6.555-4.115c-1.768-1.155-2.946-1.926-2.946-1.926
							L120.08,356.771z"/>
					</g>
				</g>
			</g>
		</g>
		<g>
			<g>
				<g>
					<g>
						<path fill="#2F4E9D" d="M296.603,368.944c0,0,0.189-0.102,0.521-0.278c0.328-0.185,0.817-0.41,1.366-0.751
							c1.109-0.658,2.589-1.536,4.067-2.414c0.74-0.438,1.479-0.878,2.173-1.289c0.686-0.425,1.306-0.852,1.848-1.202
							c1.077-0.709,1.796-1.182,1.796-1.182l1.435,2.176c0,0-0.729,0.48-1.823,1.2c-0.55,0.355-1.18,0.789-1.876,1.22
							c-0.703,0.418-1.454,0.863-2.205,1.31c-1.502,0.891-3.004,1.782-4.131,2.45c-0.557,0.346-1.054,0.575-1.386,0.763
							c-0.338,0.18-0.53,0.282-0.53,0.282L296.603,368.944z"/>
						<path fill="none" d="M291.399,367.219c0,0,1.153-0.613,2.883-1.534c1.756-0.875,3.976-2.258,6.229-3.581
							c2.275-1.288,4.427-2.775,6.069-3.844c1.639-1.077,2.73-1.795,2.73-1.795l5.994,8.67c0,0-1.16,0.764-2.899,1.909
							c-1.745,1.137-4.035,2.713-6.452,4.085c-2.394,1.408-4.756,2.873-6.62,3.807c-1.84,0.979-3.065,1.632-3.065,1.632
							L291.399,367.219z"/>
					</g>
					<g>
						<path fill="#2F4E9D" d="M277.257,378.058c0,0,3.175-1.324,6.351-2.648c3.111-1.467,6.223-2.935,6.223-2.935l1.152,2.339
							c0,0-3.159,1.489-6.318,2.979c-3.224,1.345-6.447,2.689-6.447,2.689L277.257,378.058z"/>
						<path fill="none" d="M272.306,375.68c0,0,0.307-0.111,0.844-0.306c0.534-0.204,1.313-0.453,2.219-0.825
							c1.809-0.755,4.22-1.76,6.631-2.766c2.363-1.115,4.726-2.229,6.498-3.065c0.895-0.402,1.6-0.815,2.108-1.077
							c0.505-0.269,0.793-0.422,0.793-0.422l4.868,9.349c0,0-0.307,0.163-0.844,0.448c-0.54,0.277-1.292,0.715-2.241,1.145
							c-1.885,0.889-4.397,2.073-6.91,3.258c-2.564,1.07-5.128,2.14-7.052,2.941c-0.964,0.395-1.791,0.663-2.358,0.879
							c-0.571,0.208-0.898,0.326-0.898,0.326L272.306,375.68z"/>
					</g>
					<g>
						<path fill="#2F4E9D" d="M256.911,384.632c0,0,0.833-0.215,2.082-0.537c0.624-0.161,1.354-0.35,2.134-0.551
							c0.771-0.239,1.592-0.493,2.413-0.748c1.644-0.508,3.286-1.017,4.519-1.398c0.619-0.182,1.126-0.361,1.479-0.494
							c0.354-0.129,0.556-0.202,0.556-0.202l0.85,2.465c0,0-0.206,0.074-0.564,0.204c-0.357,0.136-0.872,0.318-1.501,0.503
							c-1.251,0.387-2.92,0.903-4.588,1.42c-0.834,0.259-1.669,0.517-2.45,0.759c-0.793,0.204-1.533,0.396-2.167,0.56
							c-1.269,0.327-2.114,0.545-2.114,0.545L256.911,384.632z"/>
						<path fill="none" d="M252.315,381.722c0,0,1.265-0.327,3.161-0.817c1.893-0.507,4.444-1.079,6.924-1.907
							c2.487-0.799,5.013-1.481,6.836-2.204c1.842-0.668,3.07-1.113,3.07-1.113l3.657,9.885c0,0-1.306,0.474-3.265,1.184
							c-1.941,0.764-4.625,1.498-7.271,2.345c-2.639,0.876-5.352,1.491-7.364,2.029c-2.019,0.52-3.364,0.865-3.364,0.865
							L252.315,381.722z"/>
					</g>
				</g>
			</g>
		</g>
		<g>
			<g>
				<g>
					<g>
						<path fill="#2F4E9D" d="M378.742,266.835c0,0,0.056-0.181,0.153-0.496c0.101-0.314,0.236-0.766,0.373-1.315
							c0.287-1.096,0.67-2.556,1.054-4.016c0.191-0.73,0.383-1.46,0.563-2.145c0.151-0.691,0.292-1.337,0.413-1.89
							c0.241-1.106,0.401-1.844,0.401-1.844l2.548,0.552c0,0-0.163,0.749-0.408,1.872c-0.123,0.562-0.266,1.217-0.419,1.919
							c-0.183,0.694-0.377,1.436-0.571,2.177c-0.39,1.483-0.778,2.966-1.07,4.077c-0.139,0.559-0.276,1.018-0.379,1.337
							c-0.099,0.32-0.155,0.503-0.155,0.503L378.742,266.835z"/>
						<path fill="none" d="M373.971,268.851c0,0,0.338-1.096,0.844-2.739c0.548-1.631,1.06-3.869,1.662-6.081
							c0.626-2.207,1.051-4.462,1.432-6.139c0.367-1.68,0.611-2.8,0.611-2.8l10.344,2.027c0,0-0.26,1.191-0.648,2.979
							c-0.403,1.783-0.861,4.181-1.523,6.529c-0.638,2.354-1.188,4.731-1.769,6.468c-0.537,1.748-0.896,2.913-0.896,2.913
							L373.971,268.851z"/>
					</g>
					<g>
						<path fill="#2F4E9D" d="M372.485,284.533c0,0,1.12-2.804,2.24-5.607c1.007-2.847,2.015-5.692,2.015-5.692l2.471,0.829
							c0,0-1.022,2.891-2.045,5.78c-1.138,2.847-2.274,5.693-2.274,5.693L372.485,284.533z"/>
						<path fill="none" d="M367.525,286.01c0,0,0.117-0.262,0.323-0.719c0.2-0.46,0.518-1.104,0.824-1.907
							c0.638-1.597,1.489-3.726,2.34-5.855c0.765-2.161,1.529-4.322,2.103-5.943c0.534-1.634,0.857-2.734,0.856-2.734l10.057,3.157
							c0,0-0.344,1.17-0.913,2.908c-0.61,1.724-1.424,4.022-2.237,6.321c-0.904,2.265-1.809,4.529-2.487,6.228
							c-0.327,0.854-0.662,1.539-0.875,2.028c-0.219,0.486-0.344,0.765-0.344,0.765L367.525,286.01z"/>
					</g>
					<g>
						<path fill="#2F4E9D" d="M364.303,301.425c0,0,0.365-0.66,0.912-1.651c0.271-0.498,0.601-1.07,0.928-1.697
							c0.316-0.634,0.654-1.309,0.991-1.983c0.676-1.351,1.351-2.701,1.857-3.713c0.493-1.02,0.789-1.715,0.788-1.715l2.365,1.098
							c0,0-0.3,0.706-0.801,1.74c-0.515,1.028-1.2,2.399-1.886,3.77c-0.343,0.686-0.686,1.371-1.007,2.014
							c-0.332,0.638-0.667,1.219-0.941,1.724c-0.556,1.006-0.926,1.677-0.926,1.677L364.303,301.425z"/>
						<path fill="none" d="M359.25,302.373c0,0,0.554-1.004,1.385-2.51c0.824-1.51,1.974-3.496,2.962-5.566
							c1.019-2.054,2.083-4.087,2.752-5.672c0.705-1.568,1.176-2.614,1.176-2.614l9.646,4.248c0,0-0.5,1.111-1.251,2.779
							c-0.714,1.685-1.842,3.848-2.925,6.032c-1.055,2.199-2.272,4.313-3.15,5.917c-0.884,1.601-1.474,2.667-1.474,2.667
							L359.25,302.373z"/>
					</g>
				</g>
			</g>
		</g>
		<g>
			<g>
				<g>
					<g>
						<path fill="#2F4E9D" d="M372.055,152.217c0,0-0.274-0.71-0.736-1.754c-0.478-1.037-1.113-2.42-1.75-3.803
							c-0.317-0.691-0.636-1.383-0.934-2.031c-0.308-0.644-0.623-1.23-0.879-1.741c-0.52-1.017-0.866-1.694-0.866-1.694l2.321-1.188
							c0,0,0.352,0.688,0.878,1.72c0.26,0.518,0.58,1.114,0.893,1.768c0.303,0.658,0.626,1.36,0.948,2.062
							c0.646,1.404,1.292,2.808,1.776,3.861c0.47,1.06,0.749,1.78,0.748,1.781L372.055,152.217z"/>
						<path fill="none" d="M369.659,156.821c0,0-0.439-1.069-1.099-2.673c-0.621-1.62-1.626-3.704-2.585-5.808
							c-0.928-2.119-2.021-4.158-2.803-5.705c-0.788-1.544-1.313-2.574-1.313-2.574l9.285-4.986c0,0,0.56,1.095,1.399,2.736
							c0.832,1.645,1.99,3.815,2.98,6.066c1.021,2.236,2.085,4.454,2.748,6.176c0.701,1.706,1.168,2.843,1.168,2.843
							L369.659,156.821z"/>
					</g>
					<g>
						<path fill="#2F4E9D" d="M378.48,170.019c0,0-0.918-2.902-1.836-5.805c-1.034-2.863-2.068-5.726-2.068-5.726l2.438-0.923
							c0,0,1.05,2.907,2.1,5.814c0.932,2.947,1.864,5.894,1.864,5.894L378.48,170.019z"/>
						<path fill="none" d="M375.572,174.331c0,0-0.288-1.12-0.769-2.785c-0.522-1.653-1.22-3.857-1.917-6.061
							c-0.786-2.174-1.571-4.348-2.16-5.979c-0.282-0.82-0.578-1.48-0.766-1.95c-0.192-0.467-0.302-0.735-0.302-0.735l9.781-3.925
							c0,0,0.117,0.284,0.321,0.782c0.199,0.5,0.512,1.202,0.813,2.074c0.626,1.734,1.461,4.047,2.296,6.359
							c0.742,2.344,1.483,4.688,2.04,6.447c0.512,1.771,0.818,2.962,0.818,2.962L375.572,174.331z"/>
					</g>
					<g>
						<path fill="#2F4E9D" d="M382.848,188.433c0,0-0.136-0.749-0.34-1.872c-0.103-0.562-0.222-1.217-0.349-1.919
							c-0.158-0.696-0.325-1.438-0.493-2.181c-0.336-1.484-0.671-2.969-0.923-4.083c-0.118-0.558-0.237-1.019-0.329-1.339
							c-0.087-0.321-0.137-0.505-0.137-0.505l2.525-0.646c0,0,0.051,0.187,0.139,0.513c0.094,0.325,0.214,0.793,0.335,1.36
							c0.256,1.13,0.596,2.638,0.937,4.146c0.17,0.754,0.341,1.507,0.5,2.214c0.13,0.712,0.251,1.378,0.354,1.948
							c0.208,1.141,0.346,1.901,0.346,1.901L382.848,188.433z"/>
						<path fill="none" d="M379.536,192.384c0,0-0.207-1.137-0.518-2.843c-0.325-1.703-0.674-3.991-1.228-6.236
							c-0.531-2.25-0.967-4.523-1.464-6.186c-0.453-1.673-0.755-2.789-0.755-2.789l10.157-2.812c0,0,0.321,1.187,0.803,2.967
							c0.525,1.77,0.995,4.186,1.558,6.579c0.586,2.389,0.961,4.821,1.306,6.632c0.329,1.814,0.549,3.024,0.549,3.024
							L379.536,192.384z"/>
					</g>
				</g>
			</g>
		</g>
		<g>
			<g>
				<g>
					<g>
						<path fill="#2F4E9D" d="M272.739,58.02c0,0-2.57-0.913-5.142-1.826c-2.613-0.784-5.227-1.569-5.227-1.569l0.731-2.502
							c0,0,2.653,0.797,5.306,1.593c2.611,0.927,5.222,1.854,5.222,1.854L272.739,58.02z"/>
						<path fill="none" d="M274.171,62.739c0,0-3.904-1.388-7.809-2.776c-3.968-1.191-7.937-2.383-7.937-2.383l2.773-10.169
							c0,0,4.222,1.268,8.442,2.535c4.152,1.476,8.305,2.952,8.305,2.952L274.171,62.739z"/>
					</g>
					<g>
						<path fill="#2F4E9D" d="M288.373,64.599c0,0-2.469-1.163-4.937-2.327c-2.521-1.043-5.042-2.087-5.042-2.087l0.978-2.417
							c0,0,2.56,1.06,5.119,2.119c2.506,1.181,5.011,2.362,5.011,2.362L288.373,64.599z"/>
						<path fill="none" d="M289.328,69.439c0,0-3.748-1.77-7.495-3.539c-1.915-0.792-3.829-1.584-5.265-2.178
							c-0.718-0.297-1.316-0.545-1.735-0.719c-0.416-0.179-0.661-0.264-0.661-0.264l3.775-9.841c0,0,0.26,0.091,0.704,0.28
							c0.445,0.184,1.081,0.447,1.845,0.763c1.527,0.632,3.563,1.476,5.599,2.319c3.984,1.881,7.969,3.763,7.969,3.763
							L289.328,69.439z"/>
					</g>
					<g>
						<path fill="#2F4E9D" d="M303.275,72.7c0,0-2.341-1.402-4.681-2.805c-2.405-1.289-4.811-2.578-4.811-2.578l1.213-2.308
							c0,0,2.441,1.309,4.883,2.618c2.376,1.423,4.753,2.847,4.753,2.847L303.275,72.7z"/>
						<path fill="none" d="M303.747,77.61c0,0-3.555-2.132-7.109-4.264c-1.826-0.979-3.652-1.958-5.022-2.691
							c-0.685-0.368-1.256-0.674-1.655-0.888c-0.396-0.219-0.633-0.327-0.632-0.327l4.735-9.416c0,0,0.251,0.115,0.673,0.348
							c0.425,0.227,1.032,0.552,1.76,0.942c1.457,0.781,3.398,1.822,5.34,2.863c3.778,2.267,7.556,4.533,7.556,4.533L303.747,77.61z
							"/>
					</g>
					<g>
						<path fill="#2F4E9D" d="M317.304,82.234c0,0-2.19-1.627-4.381-3.254c-2.267-1.519-4.532-3.039-4.532-3.039l1.435-2.176
							c0,0,2.301,1.542,4.602,3.085c2.224,1.651,4.447,3.303,4.447,3.303L317.304,82.234z"/>
						<path fill="none" d="M317.292,87.166c0,0-3.328-2.472-6.655-4.945c-3.445-2.305-6.89-4.61-6.89-4.61l5.645-8.901
							c0,0,3.662,2.45,7.323,4.9c3.535,2.627,7.071,5.255,7.071,5.255L317.292,87.166z"/>
					</g>
				</g>
			</g>
		</g>
	</g>
	<circle fill="#52B0FF" cx="214.474" cy="218.879" r="152.794"/>
	<g>
		<path fill="#2F4E9E" d="M412.49,223.398c0,8.08-3.451,15.35-8.961,20.42c-4.939,4.561-11.539,7.33-18.789,7.33
			s-13.851-2.77-18.791-7.33c-5.51-5.07-8.959-12.34-8.959-20.42c0-15.33,12.42-27.75,27.75-27.75S412.49,208.068,412.49,223.398z"
			/>
	</g>
	<path opacity="0.5" fill="#52B0FF" d="M325.94,301.269c0,1.712-1.387,3.1-3.1,3.1H105.267c-1.712,0-3.1-1.388-3.1-3.1l0,0
		c0-1.712,1.388-3.1,3.1-3.1H322.84C324.553,298.169,325.94,299.557,325.94,301.269L325.94,301.269z"/>
	<g>
		<g>
			<path fill="#2F4E9D" d="M325.94,156.486v123.211c0,3.912-3.185,7.098-7.097,7.098H110.107c-3.912,0-7.096-3.186-7.096-7.098
				V156.486c0-3.92,3.185-7.096,7.096-7.096h208.736C322.755,149.39,325.94,152.565,325.94,156.486z"/>
			<path fill="#439AE2" d="M319.573,278.388c0,2.355-1.929,4.283-4.284,4.283H113.659c-2.357,0-4.284-1.928-4.284-4.283V159.371
				c0-2.356,1.927-4.284,4.284-4.284h201.629c2.355,0,4.284,1.928,4.284,4.284V278.388z"/>
		</g>
		<g>
			<rect x="192.467" y="278.476" fill="#253E7D" width="44.018" height="20.623"/>
			<path fill="#2F4E9D" d="M244.633,299.099c0,1.041-0.844,1.885-1.885,1.885h-56.545c-1.042,0-1.885-0.844-1.885-1.885l0,0
				c0-1.043,0.843-1.887,1.885-1.887h56.545C243.79,297.212,244.633,298.056,244.633,299.099L244.633,299.099z"/>
		</g>
	</g>
	<g>
		<g>
			<circle fill="#101C38" cx="214.018" cy="76.449" r="5.545"/>
			<path fill="#FFFFFF" d="M214.037,28.616c-10.393,0-18.818,8.424-18.818,18.817c0,7.243,4.093,13.53,10.092,16.676
				c1.22,0.64,2.28,2.125,2.28,3.503v4.045h12.891v-4.045c0-1.377,1.06-2.863,2.279-3.503c6-3.146,10.093-9.433,10.093-16.676
				C232.854,37.041,224.428,28.616,214.037,28.616z"/>
			<rect x="206.828" y="71.033" fill="#101C38" width="14.416" height="8.266"/>
			<path fill="#253E7D" d="M222.578,75.166c0,0.708-0.574,1.283-1.282,1.283h-14.554c-0.709,0-1.283-0.574-1.283-1.283l0,0
				c0-0.708,0.574-1.282,1.283-1.282h14.554C222.003,73.884,222.578,74.458,222.578,75.166L222.578,75.166z"/>
			<path fill="#253E7D" d="M222.578,78.762c0,0.708-0.574,1.282-1.282,1.282h-14.554c-0.709,0-1.283-0.574-1.283-1.282l0,0
				c0-0.708,0.574-1.282,1.283-1.282h14.554C222.003,77.48,222.578,78.054,222.578,78.762L222.578,78.762z"/>
			<path fill="#FFFFFF" d="M215.639,23.289c0,0.961-0.78,1.741-1.741,1.741l0,0c-0.961,0-1.741-0.78-1.741-1.741V11.731
				c0-0.961,0.78-1.741,1.741-1.741l0,0c0.961,0,1.741,0.78,1.741,1.741V23.289z"/>
			<path fill="#FFFFFF" d="M197.688,29.836c0.68,0.68,0.679,1.783-0.001,2.462l0,0c-0.68,0.68-1.781,0.68-2.461,0l-8.173-8.172
				c-0.68-0.68-0.68-1.782,0-2.462l0,0c0.68-0.68,1.782-0.68,2.462,0L197.688,29.836z"/>
			<path fill="#FFFFFF" d="M189.625,47.159c0.961,0,1.74,0.781,1.74,1.742l0,0c0,0.961-0.779,1.74-1.74,1.74h-11.559
				c-0.961,0-1.74-0.78-1.74-1.741l0,0c0-0.961,0.779-1.741,1.74-1.741L189.625,47.159z"/>
			<path fill="#FFFFFF" d="M196.171,65.11c0.68-0.679,1.783-0.679,2.463,0.001l0,0c0.68,0.68,0.679,1.782-0.001,2.461l-8.173,8.173
				c-0.68,0.68-1.781,0.679-2.461,0l0,0c-0.68-0.68-0.681-1.782-0.001-2.462L196.171,65.11z"/>
			<path fill="#FFFFFF" d="M231.445,66.627c-0.679-0.68-0.679-1.783,0.001-2.463l0,0c0.679-0.679,1.782-0.679,2.462,0l8.173,8.173
				c0.679,0.679,0.679,1.781,0,2.461l0,0c-0.68,0.68-1.782,0.68-2.462,0.001L231.445,66.627z"/>
			<path fill="#FFFFFF" d="M239.509,49.304c-0.961,0-1.741-0.781-1.741-1.742l0,0c-0.001-0.96,0.78-1.74,1.741-1.741l11.559,0
				c0.96,0,1.739,0.779,1.74,1.74l0,0c0,0.961-0.779,1.741-1.74,1.742L239.509,49.304z"/>
			<path fill="#FFFFFF" d="M232.962,31.353c-0.68,0.679-1.783,0.679-2.463,0l0,0c-0.68-0.678-0.679-1.782,0-2.462l8.174-8.173
				c0.679-0.679,1.781-0.679,2.461,0l0,0c0.68,0.68,0.68,1.782,0.001,2.462L232.962,31.353z"/>
			<path fill="#253E7D" d="M222.578,71.542c0,0.708-0.574,1.282-1.282,1.282h-14.554c-0.709,0-1.283-0.574-1.283-1.282l0,0
				c0-0.708,0.574-1.282,1.283-1.282h14.554C222.003,70.259,222.578,70.833,222.578,71.542L222.578,71.542z"/>
		</g>
		<path fill="none" stroke="#439AE2" stroke-width="3" stroke-linecap="round" stroke-miterlimit="10" d="M200.958,48.145
			c0-7.146,5.793-12.939,12.939-12.939"/>
	</g>
	<g>
		<path fill="#2F4E9E" d="M215.527,361.123c-15.464,0-28,12.535-28,28c0,7.889,3.268,15.012,8.517,20.1l-0.043,2.92l-0.138,9.355
			l8.171-4.559l2.396-1.336c2.854,0.98,5.912,1.52,9.098,1.52c15.463,0,28-12.537,28-28
			C243.527,373.658,230.99,361.123,215.527,361.123z"/>
		<circle fill="#FFFFFF" cx="203.104" cy="389.153" r="2.688"/>
		<circle fill="#FFFFFF" cx="216.021" cy="389.153" r="2.688"/>
		<circle fill="#FFFFFF" cx="228.937" cy="389.153" r="2.688"/>
	</g>
	<g>
		<g>
			<path fill="#2F4E9E" d="M82.31,70.182h-1.27h-0.105c0,0-0.571,0-1.274,0c-0.701,0-1.446,0.684-1.67,1.528l-1.655,6.303h4.599
				h0.105h4.597l-1.655-6.303C83.758,70.866,83.01,70.182,82.31,70.182z"/>
			<path fill="#2F4E9E" d="M57.184,79.518l-0.896,0.9l-0.074,0.075c0,0-0.405,0.402-0.9,0.898c-0.495,0.496-0.542,1.51-0.101,2.262
				L58.5,89.28l3.252-3.25l0.071-0.073l3.251-3.253l-5.625-3.287C58.693,78.978,57.682,79.022,57.184,79.518z"/>
			<path fill="#2F4E9E" d="M46.022,103.886v1.271v0.105c0,0,0,0.568,0,1.27c0,0.702,0.685,1.452,1.531,1.673l6.303,1.654v-4.596
				v-0.105v-4.598l-6.305,1.655C46.708,102.436,46.022,103.185,46.022,103.886z"/>
			<path fill="#2F4E9E" d="M55.362,129.008l0.9,0.899l0.072,0.074c0,0,0.403,0.401,0.898,0.899c0.497,0.496,1.511,0.542,2.266,0.1
				l5.625-3.287l-3.247-3.249l-0.074-0.074l-3.253-3.251l-3.289,5.626C54.82,127.498,54.867,128.511,55.362,129.008z"/>
			<path fill="#2F4E9E" d="M79.728,140.169l1.271,0.001h0.104c0,0,0.571-0.001,1.276,0c0.699,0,1.447-0.685,1.671-1.53l1.652-6.3
				l-4.599-0.002h-0.104l-4.597,0.001l1.655,6.304C78.281,139.485,79.027,140.17,79.728,140.169z"/>
			<path fill="#2F4E9E" d="M104.853,130.833l0.898-0.9l0.074-0.074c0,0,0.403-0.401,0.898-0.899
				c0.497-0.495,0.542-1.508,0.105-2.264l-3.292-5.625l-3.251,3.25l-0.072,0.073l-3.251,3.253l5.625,3.287
				C103.341,131.373,104.358,131.331,104.853,130.833z"/>
			<path fill="#2F4E9E" d="M116.012,106.465v-1.272v-0.104c0,0,0-0.57,0-1.271c0-0.701-0.683-1.451-1.527-1.672l-6.303-1.655
				l-0.002,4.596v0.106v4.598l6.308-1.654C115.329,107.916,116.012,107.167,116.012,106.465z"/>
			<path fill="#2F4E9E" d="M106.673,81.341l-0.896-0.899l-0.074-0.073c0,0-0.403-0.403-0.898-0.899
				c-0.495-0.495-1.512-0.542-2.266-0.101l-5.625,3.285l3.249,3.251l0.074,0.075l3.251,3.251l3.287-5.628
				C107.217,82.852,107.174,81.838,106.673,81.341z"/>
			<path fill="#2F4E9E" d="M109.198,101.295c-0.594-5.056-2.526-9.708-5.415-13.595c-1.508-1.997-3.271-3.824-5.269-5.374
				c-3.908-3.059-8.625-5.119-13.787-5.778c-1.209-0.17-2.464-0.255-3.716-0.255c-1.275,0-2.53,0.085-3.761,0.255
				c-5.163,0.68-9.876,2.741-13.787,5.82c-1.977,1.551-3.739,3.357-5.248,5.375c-2.887,3.908-4.799,8.56-5.396,13.616
				c-0.126,1.084-0.19,2.189-0.19,3.314c0,1.508,0.126,2.973,0.34,4.419c0.765,4.843,2.741,9.283,5.628,12.979
				c1.616,2.081,3.528,3.951,5.652,5.522c3.696,2.698,8.049,4.524,12.808,5.184c1.297,0.191,2.616,0.275,3.953,0.275
				c1.378,0,2.718-0.106,4.035-0.275c4.737-0.68,9.092-2.528,12.789-5.227c2.146-1.593,4.037-3.441,5.652-5.544
				c2.866-3.717,4.842-8.136,5.607-12.979c0.212-1.423,0.318-2.867,0.318-4.354C109.411,103.525,109.347,102.4,109.198,101.295z
				 M81.011,125.533c-11.472,0-20.84-9.368-20.84-20.86c0-11.493,9.368-20.86,20.84-20.86c11.513,0,20.86,9.367,20.86,20.86
				C101.871,116.165,92.524,125.533,81.011,125.533z"/>
			<path fill="#1D3163" d="M81.052,82.098c-12.466,0-22.574,10.107-22.574,22.574s10.108,22.575,22.574,22.575
				c12.468,0,22.574-10.108,22.574-22.575S93.52,82.098,81.052,82.098z M81.012,124.807c-11.073,0-20.116-9.042-20.116-20.135
				c0-11.093,9.042-20.134,20.116-20.134c11.113,0,20.134,9.041,20.134,20.134C101.146,115.765,92.125,124.807,81.012,124.807z"/>
		</g>
	</g>
	<g>
		<path fill="#FFFFFF" d="M116.951,323.094c0-2.627-2.129-4.756-4.757-4.756l-22.773-1.576c0,0,4-11.634,2.479-16.739
			c-1.045-3.511-3.355-4.606-5.973-4.567c-1.119,0.017-2.22,1.029-2.465,2.121l-1.342,5.978c-0.246,1.093-1.063,2.643-1.825,3.463
			l-9.502,10.208c-0.764,0.82-12.328,3.512-12.328,3.512v31.22c0,0,11.854,2.634,12.974,2.634h30.359h5.492h0.327v-0.012
			c2.474-0.169,4.429-2.228,4.429-4.744c0-1.684-0.875-3.161-2.195-4.007c2.247-0.379,3.96-2.334,3.96-4.688
			c0-1.97-1.198-3.66-2.906-4.383c2.203-0.415,3.87-2.35,3.87-4.673c0-1.846-1.052-3.444-2.589-4.233
			C114.822,327.85,116.951,325.721,116.951,323.094z"/>
		<path fill="#2F4E9E" d="M50.356,353.578c0,0.557,0.457,1.013,1.014,1.013h11.554c0.558,0,1.014-0.456,1.014-1.013v-34.665
			c0-0.558-0.457-1.014-1.014-1.014H51.37c-0.558,0-1.014,0.456-1.014,1.014V353.578z"/>
	</g>
	<g>
		<path fill="#2F4E9E" d="M66.15,213.508c0,8.08-3.45,15.35-8.96,20.42c-4.94,4.56-11.54,7.33-18.79,7.33s-13.85-2.771-18.79-7.33
			c-5.51-5.07-8.96-12.34-8.96-20.42c0-15.33,12.42-27.75,27.75-27.75S66.15,198.178,66.15,213.508z"/>
	</g>
	<g>
		<path fill="#2F4E9E" d="M375.706,106.336c0,8.08-3.451,15.35-8.961,20.42c-4.939,4.56-11.539,7.33-18.789,7.33
			s-13.851-2.771-18.791-7.33c-5.51-5.07-8.959-12.34-8.959-20.42c0-15.33,12.42-27.75,27.75-27.75S375.706,91.006,375.706,106.336z
			"/>
	</g>
	<g>
		<g>
			<path fill="#2F4E9D" d="M370.503,333.518c0,15.378-12.499,27.877-27.877,27.877c-15.364,0-27.877-12.499-27.877-27.877
				s12.513-27.877,27.877-27.877C358.004,305.641,370.503,318.14,370.503,333.518z"/>
			<pattern  id="SVGID_1_" xlink:href="#Unnamed_Pattern_2" patternTransform="matrix(-1.3143 0 0 1.3143 -17160.7891 2591.1055)">
			</pattern>
			<path fill="url(#SVGID_1_)" d="M342.626,305.641c-15.364,0-27.877,12.499-27.877,27.877s12.513,27.877,27.877,27.877
				c15.378,0,27.877-12.499,27.877-27.877S358.004,305.641,342.626,305.641z M342.626,357.242
				c-13.078,0-23.724-10.646-23.724-23.724s10.646-23.724,23.724-23.724s23.724,10.646,23.724,23.724
				S355.705,357.242,342.626,357.242z"/>
			<pattern  id="SVGID_2_" xlink:href="#Unnamed_Pattern_2" patternTransform="matrix(-1.3143 0 0 1.3143 -17160.7891 2591.1055)">
			</pattern>
			<path fill="url(#SVGID_2_)" d="M342.626,314.959c-10.238,0-18.559,8.32-18.559,18.559s8.32,18.559,18.559,18.559
				s18.559-8.32,18.559-18.559S352.865,314.959,342.626,314.959z M342.626,348.001c-7.991,0-14.483-6.492-14.483-14.483
				s6.492-14.484,14.483-14.484s14.484,6.493,14.484,14.484S350.618,348.001,342.626,348.001z"/>
			<pattern  id="SVGID_3_" xlink:href="#Unnamed_Pattern_2" patternTransform="matrix(-1.3143 0 0 1.3143 -17160.7891 2591.1055)">
			</pattern>
			<path fill="url(#SVGID_3_)" d="M342.626,324.777c-4.823,0-8.739,3.918-8.739,8.741s3.916,8.739,8.739,8.739
				s8.754-3.916,8.754-8.739S347.45,324.777,342.626,324.777z M342.626,338.184c-2.576,0-4.666-2.09-4.666-4.666
				s2.09-4.666,4.666-4.666s4.68,2.09,4.68,4.666S345.203,338.184,342.626,338.184z"/>
		</g>
		<g>
			<pattern  id="SVGID_4_" xlink:href="#Unnamed_Pattern_2" patternTransform="matrix(-1.0252 0 0 1.0252 -14837.7021 578.9771)">
			</pattern>
			<polygon fill="url(#SVGID_4_)" points="363.4,300.21 363.473,312.34 376.233,312.149 391.817,297.273 380.275,294.585 
				376.731,283.079 			"/>
			
				<line fill="none" stroke="#101C38" stroke-width="5" stroke-linecap="round" stroke-miterlimit="10" x1="342.634" y1="333.517" x2="374.437" y2="301.714"/>
		</g>
	</g>
	<g>
		<path fill="#D6A478" d="M166.354,264.087l8.62-4.263c0,0,5.189,1.111,10.194-1.113c5.005-2.224,19.463-10.008,20.39-11.121
			c0.927-1.111,8.156-7.666,7.692-9.996c-0.463-2.33-9.453-23.091-9.453-23.091s-22.892,1.391-23.912,2.132
			c-1.02,0.741-9.546,23.54-9.546,23.54l-11.661,8.1l7.397,15.813"/>
		<g>
			<g>
				<path fill="#101C38" d="M171.474,205.953l4.828-1.925l-9.806-24.6l-4.828,1.925c-2.625,1.046-3.905,4.021-2.859,6.646
					l6.017,15.096C165.873,205.719,168.849,206.999,171.474,205.953z"/>
				<circle fill="#101C38" cx="249.439" cy="160.619" r="12.148"/>
				<path fill="#101C38" d="M206.891,233.556c1.54,3.863-0.343,8.244-4.208,9.783l0,0c-3.864,1.541-8.246-0.342-9.785-4.205
					l-17.163-43.055c-1.54-3.864,0.345-8.244,4.209-9.784l0,0c3.864-1.541,8.244,0.343,9.784,4.207L206.891,233.556z"/>
				<g>
					<path fill="#FFFFFF" d="M241.514,125.83l13.123,32.92l-88.483,35.27l-1.193-2.993l25.061-23.784
						c0,0,20.734-13.695,28.008-21.036c13.715-13.863,16.953-20.897,16.953-20.897c0.381-1.015,1.02-1.614,1.482-1.831
						c0.014-0.006,0.014-0.006,0.014-0.006c1.873-0.888,3.822-0.174,4.854,1.941C241.401,125.545,241.454,125.681,241.514,125.83z"
						/>
					<path fill="#EAEAEA" d="M267.709,191.548l-13.121-32.92l-88.482,35.271l1.193,2.992l34.55,0.022c0,0,24.468-4.324,34.798-4
						c19.49,0.627,26.68,3.504,26.68,3.504c0.975,0.476,1.852,0.471,2.336,0.31c0.014-0.005,0.014-0.005,0.014-0.005
						c1.973-0.645,2.895-2.504,2.188-4.749C267.823,191.833,267.77,191.697,267.709,191.548z"/>
				</g>
				<path fill="#253E7D" d="M190.004,167.054l11.962,30.009l-28.407,11.323c-1.208,0.481-2.57-0.074-3.046-1.266l-10.256-25.729
					c-0.475-1.191,0.132-2.533,1.339-3.014L190.004,167.054z"/>
			</g>
			<path fill="#101C38" d="M266.378,114.885c1.033,0.389,1.556,1.543,1.166,2.577l-5.76,15.284c-0.39,1.034-1.544,1.556-2.577,1.166
				l0,0c-1.033-0.389-1.556-1.543-1.166-2.577l5.76-15.284C264.191,115.017,265.344,114.495,266.378,114.885L266.378,114.885z"/>
			<path fill="#101C38" d="M286.603,144.15c0.424,1.02-0.06,2.19-1.079,2.614l-15.082,6.27c-1.021,0.424-2.191-0.06-2.615-1.079l0,0
				c-0.424-1.02,0.06-2.19,1.079-2.614l15.082-6.27C285.007,142.647,286.178,143.13,286.603,144.15L286.603,144.15z"/>
			<path fill="#101C38" d="M290.676,174.442c-0.324,1.055-1.443,1.648-2.499,1.324l-15.612-4.799
				c-1.056-0.325-1.648-1.444-1.323-2.5l0,0c0.324-1.055,1.443-1.648,2.499-1.324l15.611,4.799
				C290.409,172.267,291,173.385,290.676,174.442L290.676,174.442z"/>
		</g>
		<g>
			<path fill="#E0AC7E" d="M208.792,211.962c1.191,1.886,0.799,4.272-0.874,5.329l-14.367,9.072
				c-1.673,1.057-3.996,0.385-5.188-1.503l0,0c-1.19-1.885-0.799-4.271,0.874-5.328l14.367-9.073
				C205.277,209.404,207.6,210.076,208.792,211.962L208.792,211.962z"/>
			<path fill="#E0AC7E" d="M214.737,217.942c1.364,2.163,0.916,4.897-1.001,6.108l-16.471,10.4c-1.918,1.211-4.581,0.44-5.945-1.722
				l0,0c-1.366-2.162-0.918-4.896,1.001-6.108l16.47-10.4C210.709,215.009,213.371,215.78,214.737,217.942L214.737,217.942z"/>
			<path fill="#E0AC7E" d="M215.838,227.313c1.176,1.864,0.789,4.22-0.864,5.266l-14.192,8.962c-1.653,1.044-3.949,0.38-5.125-1.484
				l0,0c-1.177-1.862-0.791-4.22,0.863-5.264l14.194-8.963C212.367,224.785,214.661,225.45,215.838,227.313L215.838,227.313z"/>
			<path fill="#E0AC7E" d="M217.099,235.554c1.113,1.762,0.747,3.989-0.815,4.976l-13.416,8.473
				c-1.563,0.986-3.731,0.359-4.843-1.402l0,0c-1.113-1.762-0.748-3.989,0.815-4.976l13.415-8.473
				C213.819,233.166,215.987,233.792,217.099,235.554L217.099,235.554z"/>
			<path fill="#E6B081" d="M194.755,224.423l-1.735,1.095c-0.37,0.229-0.78,0.35-1.22,0.35c-1,0-1.99-0.59-2.59-1.54
				c-0.9-1.42-0.64-3.19,0.56-3.95c0,0,0.725-0.459,1.62-1.025c0.895-0.566,2.994-0.406,3.997,1.033
				C196.391,221.824,195.713,223.818,194.755,224.423z"/>
			<path fill="#E6B081" d="M197.88,232.238l-1.735,1.095c-0.37,0.229-0.78,0.35-1.22,0.35c-1,0-1.99-0.59-2.59-1.54
				c-0.9-1.42-0.64-3.189,0.56-3.949c0,0,0.725-0.459,1.62-1.025c0.895-0.566,2.994-0.406,3.997,1.033
				C199.516,229.638,198.838,231.632,197.88,232.238z"/>
			<path fill="#E6B081" d="M201.965,239.55l-1.735,1.095c-0.37,0.229-0.78,0.35-1.22,0.35c-1,0-1.99-0.59-2.59-1.54
				c-0.9-1.42-0.64-3.189,0.56-3.949c0,0,0.725-0.459,1.62-1.025c0.895-0.566,2.994-0.406,3.997,1.033
				C203.601,236.951,202.923,238.945,201.965,239.55z"/>
			<path fill="#E6B081" d="M204.154,246.704l-1.475,0.896c-0.314,0.188-0.663,0.285-1.037,0.285c-0.85,0-1.691-0.481-2.201-1.258
				c-0.765-1.161-0.544-2.607,0.476-3.228c0,0,0.616-0.376,1.377-0.839c0.76-0.463,2.544-0.332,3.397,0.844
				C205.544,244.579,204.968,246.209,204.154,246.704z"/>
		</g>
		<g>
			<path fill="#EBB484" d="M155.974,242.03l7.415-5.005l8.527-23.541l20.853-7.044l17.053,6.024c0,0,1.297,7.137-9.638,6.951
				l-7.878-1.39l-6.21,4.355c0,0,4.727,17.425-3.985,22.985c-8.711,5.561-14.18,1.391-14.18,1.391l-8.155,3.614l-4.264-8.156"/>
			<path fill="#F7C092" d="M202.732,209.96c0,0-1.207,1.354-0.416,2.021s5.217,1.777,5.864,1.557
				c0.688-0.234,0.862-1.348,0.862-1.348L202.732,209.96z"/>
		</g>
		<g>
			
				<rect x="157.025" y="238.721" transform="matrix(0.8901 -0.4558 0.4558 0.8901 -97.9716 101.3074)" fill="#FFFFFF" width="8.125" height="30.177"/>
			<polygon fill="#101C38" points="165.322,269.314 141.722,281.395 109.375,257.494 148.911,237.254 			"/>
		</g>
	</g>
	<path fill="#2F4E9D" d="M325.94,257.292v22.404c0,3.912-3.185,7.098-7.097,7.098H110.107c-3.912,0-7.096-3.186-7.096-7.098v-22.404
		H325.94z"/>
	<g>
		<g>
			<g>
				<path fill="#FFFFFF" d="M362.684,94.396c-3.931-4.35-9.16-6.744-14.729-6.744c-5.567,0-10.798,2.395-14.729,6.745
					c-0.752,0.833-0.752,2.141,0,2.975l2.896,3.205c0.757,0.836,2.161,0.837,2.919-0.001c0.951-1.054,2.033-1.922,3.208-2.576
					c0.673-0.365,1.091-1.094,1.081-1.781l0.416-2.849c3.005-0.989,5.443-0.991,8.421-0.002l0.405,2.728
					c0,0.794,0.406,1.522,1.074,1.908c1.182,0.659,2.266,1.528,3.217,2.582c0.378,0.418,0.91,0.658,1.459,0.658
					s1.08-0.24,1.459-0.659l2.903-3.212C363.437,96.537,363.437,95.229,362.684,94.396z M361.423,96.232l-2.901,3.212
					c-0.118,0.128-0.282,0.129-0.398,0.001c-1.076-1.192-2.305-2.177-3.639-2.92c-0.133-0.077-0.215-0.243-0.224-0.555l-0.489-3.361
					c-0.045-0.31-0.258-0.57-0.554-0.675c-1.86-0.672-3.553-1.007-5.25-1.007c-1.696,0-3.397,0.335-5.274,1.005
					c-0.296,0.106-0.51,0.366-0.556,0.677l-0.498,3.484c0,0.207-0.104,0.358-0.21,0.415c-1.347,0.75-2.574,1.735-3.649,2.927
					c-0.118,0.129-0.283,0.128-0.398,0l-2.895-3.204c-0.165-0.182-0.165-0.516,0-0.697c3.604-3.989,8.387-6.185,13.467-6.185
					c5.082,0,9.865,2.196,13.469,6.184C361.588,95.716,361.588,96.05,361.423,96.232z"/>
				<path fill="#FFFFFF" d="M347.955,104.65c0.937,0,1.699-0.763,1.699-1.699s-0.763-1.699-1.699-1.699s-1.698,0.762-1.698,1.699
					S347.018,104.65,347.955,104.65z"/>
				<path fill="#FFFFFF" d="M341.16,101.252c-0.937,0-1.699,0.762-1.699,1.699s0.763,1.699,1.699,1.699s1.699-0.763,1.699-1.699
					S342.096,101.252,341.16,101.252z"/>
				<path fill="#FFFFFF" d="M354.75,101.252c-0.937,0-1.698,0.762-1.698,1.699s0.762,1.699,1.698,1.699s1.699-0.763,1.699-1.699
					S355.687,101.252,354.75,101.252z"/>
				<path fill="#FFFFFF" d="M347.955,111.44c0.937,0,1.699-0.762,1.699-1.699s-0.763-1.699-1.699-1.699s-1.698,0.763-1.698,1.699
					S347.018,111.44,347.955,111.44z"/>
				<path fill="#FFFFFF" d="M341.16,108.042c-0.937,0-1.699,0.763-1.699,1.699s0.763,1.699,1.699,1.699s1.699-0.762,1.699-1.699
					S342.096,108.042,341.16,108.042z"/>
				<path fill="#FFFFFF" d="M354.75,108.042c-0.937,0-1.698,0.763-1.698,1.699s0.762,1.699,1.698,1.699s1.699-0.762,1.699-1.699
					S355.687,108.042,354.75,108.042z"/>
				<path fill="#FFFFFF" d="M347.955,118.23c0.937,0,1.699-0.762,1.699-1.699s-0.763-1.699-1.699-1.699s-1.698,0.763-1.698,1.699
					S347.018,118.23,347.955,118.23z"/>
				<path fill="#FFFFFF" d="M341.16,114.833c-0.937,0-1.699,0.763-1.699,1.699s0.763,1.699,1.699,1.699s1.699-0.762,1.699-1.699
					S342.096,114.833,341.16,114.833z"/>
				<path fill="#FFFFFF" d="M354.75,114.833c-0.937,0-1.698,0.763-1.698,1.699s0.762,1.699,1.698,1.699s1.699-0.762,1.699-1.699
					S355.687,114.833,354.75,114.833z"/>
				<circle fill="#FFFFFF" cx="347.956" cy="123.323" r="1.699"/>
			</g>
		</g>
	</g>
	<circle fill="#2F4E9E" cx="81.052" cy="104.65" r="20.605"/>
	<g transform="translate(-1 -1)">
		<g>
			<g>
				<path fill="#FFFFFF" d="M52.482,223.715l-6.017-4.012c-0.763-0.506-1.786-0.339-2.351,0.381l-1.753,2.252
					c-0.225,0.298-0.635,0.384-0.96,0.203l-0.333-0.184c-1.105-0.603-2.48-1.352-5.251-4.124c-2.77-2.771-3.521-4.147-4.123-5.25
					l-0.184-0.333c-0.183-0.326-0.098-0.737,0.199-0.964l2.251-1.752c0.721-0.564,0.887-1.587,0.382-2.352l-4.012-6.016
					c-0.517-0.778-1.554-1.011-2.354-0.53l-2.516,1.511c-0.79,0.465-1.37,1.218-1.618,2.101c-0.906,3.3-0.225,8.997,8.167,17.39
					c6.675,6.674,11.645,8.469,15.061,8.469c0.786,0.004,1.569-0.099,2.328-0.305c0.883-0.247,1.636-0.827,2.1-1.618l1.513-2.514
					C53.493,225.271,53.259,224.233,52.482,223.715z M52.158,225.563l-1.51,2.515c-0.333,0.571-0.874,0.991-1.51,1.172
					c-3.047,0.837-8.372,0.144-16.427-7.913c-8.057-8.056-8.749-13.379-7.913-16.427c0.18-0.637,0.601-1.179,1.172-1.513
					l2.515-1.509c0.348-0.209,0.798-0.108,1.021,0.23l2.181,3.272l1.829,2.744c0.219,0.331,0.147,0.775-0.167,1.02l-2.251,1.752
					c-0.686,0.524-0.881,1.472-0.458,2.225l0.178,0.324c0.634,1.161,1.421,2.605,4.294,5.479c2.873,2.873,4.316,3.659,5.477,4.293
					l0.326,0.179c0.752,0.421,1.7,0.226,2.225-0.459l1.752-2.252c0.245-0.313,0.689-0.385,1.021-0.166l6.016,4.011
					C52.266,224.765,52.367,225.215,52.158,225.563z"/>
				<path fill="#FFFFFF" d="M40.381,205.742c4.648,0.004,8.415,3.771,8.419,8.42c0,0.273,0.222,0.495,0.496,0.495
					c0.274,0,0.496-0.221,0.496-0.495c-0.005-5.196-4.216-9.406-9.411-9.412c-0.274,0-0.496,0.222-0.496,0.496
					C39.885,205.52,40.107,205.742,40.381,205.742z"/>
				<path fill="#FFFFFF" d="M40.381,208.714c3.007,0.003,5.445,2.441,5.448,5.449c0,0.273,0.222,0.495,0.496,0.495
					s0.495-0.221,0.495-0.495c-0.003-3.556-2.883-6.436-6.438-6.44c-0.274,0-0.496,0.222-0.496,0.496S40.107,208.714,40.381,208.714
					z"/>
				<path fill="#FFFFFF" d="M40.381,211.686c1.367,0.001,2.475,1.109,2.476,2.477c0,0.273,0.222,0.495,0.496,0.495
					c0.273,0,0.495-0.221,0.495-0.495c-0.001-1.915-1.553-3.465-3.466-3.467c-0.274,0-0.496,0.221-0.496,0.495
					C39.885,211.464,40.107,211.686,40.381,211.686z"/>
			</g>
		</g>
	</g>
	<g>
		<g>
			<g>
				<path fill="#FFFFFF" d="M81.052,89.511c-1.396,0-2.526,1.131-2.526,2.526s1.13,2.526,2.526,2.526
					c1.394-0.001,2.524-1.131,2.526-2.526C83.578,90.642,82.447,89.511,81.052,89.511z M81.052,93.721
					c-0.93,0-1.684-0.754-1.684-1.684s0.754-1.684,1.684-1.684s1.684,0.754,1.684,1.684S81.982,93.721,81.052,93.721z"/>
			</g>
		</g>
		<g>
			<g>
				<path fill="#FFFFFF" d="M82.736,94.984h-0.099l-0.09,0.044c-0.941,0.469-2.049,0.469-2.99,0l-0.09-0.044h-0.099
					c-1.162,0.001-2.103,0.943-2.104,2.106v2.525c0,0.697,0.565,1.263,1.263,1.263h5.052c0.698,0,1.263-0.566,1.263-1.263V97.09
					C84.839,95.927,83.897,94.985,82.736,94.984z M83.999,99.615c0,0.232-0.188,0.42-0.421,0.42h-5.052
					c-0.233,0-0.421-0.188-0.421-0.42V97.09c0-0.663,0.513-1.214,1.174-1.26c1.125,0.522,2.422,0.522,3.547,0
					c0.661,0.046,1.173,0.597,1.174,1.26V99.615z"/>
			</g>
		</g>
		<g>
			<g>
				<path fill="#FFFFFF" d="M89.893,103.404c-1.395,0-2.525,1.132-2.525,2.526c0,1.395,1.13,2.526,2.525,2.526
					c1.396,0,2.526-1.131,2.526-2.526C92.417,104.536,91.288,103.406,89.893,103.404z M89.893,107.614
					c-0.93,0-1.684-0.754-1.684-1.684s0.754-1.684,1.684-1.684c0.93,0,1.685,0.754,1.685,1.684S90.823,107.614,89.893,107.614z"/>
			</g>
		</g>
		<g>
			<g>
				<path fill="#FFFFFF" d="M91.578,108.877h-0.1l-0.089,0.042c-0.942,0.469-2.049,0.469-2.991,0l-0.089-0.042h-0.099
					c-1.162,0.001-2.104,0.943-2.105,2.105v2.526c0,0.698,0.565,1.264,1.263,1.264h5.051c0.698,0,1.264-0.565,1.264-1.264v-2.526
					C93.68,109.82,92.739,108.878,91.578,108.877z M92.84,113.508c0,0.233-0.188,0.422-0.421,0.422h-5.051
					c-0.233,0-0.421-0.189-0.421-0.422v-2.526c0-0.663,0.512-1.212,1.173-1.259c1.125,0.522,2.422,0.522,3.547,0
					c0.661,0.047,1.173,0.597,1.173,1.259V113.508z"/>
			</g>
		</g>
		<g>
			<g>
				<path fill="#FFFFFF" d="M72.211,103.404c-1.396,0-2.526,1.132-2.526,2.526c0,1.395,1.13,2.526,2.526,2.526
					c1.395,0,2.526-1.131,2.526-2.526C74.735,104.536,73.605,103.406,72.211,103.404z M72.211,107.614
					c-0.93,0-1.685-0.754-1.685-1.684s0.755-1.684,1.685-1.684c0.93,0,1.684,0.754,1.684,1.684S73.141,107.614,72.211,107.614z"/>
			</g>
		</g>
		<g>
			<g>
				<path fill="#FFFFFF" d="M73.895,108.877h-0.099l-0.089,0.042c-0.942,0.469-2.049,0.469-2.991,0l-0.089-0.042h-0.1
					c-1.161,0.001-2.103,0.943-2.105,2.105v2.526c0,0.698,0.566,1.264,1.264,1.264h5.052c0.697,0,1.263-0.565,1.263-1.264v-2.526
					C75.998,109.82,75.057,108.878,73.895,108.877z M75.158,113.508c0,0.233-0.188,0.422-0.421,0.422h-5.052
					c-0.233,0-0.421-0.189-0.421-0.422v-2.526c0-0.663,0.512-1.212,1.173-1.259c1.125,0.522,2.422,0.522,3.547,0
					c0.661,0.047,1.173,0.597,1.173,1.259V113.508z"/>
			</g>
		</g>
		<g>
			<g>
				<path fill="#FFFFFF" d="M85.229,110.892c0-0.001,0-0.002,0-0.002c-0.091-0.213-0.338-0.313-0.552-0.222l0,0
					c-1.901,0.797-4.013,0.942-6.006,0.414l0.395-0.117c0.223-0.065,0.351-0.299,0.286-0.522c-0.065-0.223-0.299-0.351-0.523-0.286
					l-1.684,0.494c-0.006,0-0.011,0.007-0.017,0.01c-0.039,0.014-0.075,0.035-0.108,0.059c-0.015,0.009-0.029,0.018-0.043,0.027
					c-0.043,0.04-0.079,0.089-0.102,0.143c-0.023,0.056-0.034,0.115-0.032,0.174c0.01,0.058,0.024,0.113,0.042,0.169
					c0.003,0.006,0,0.012,0.005,0.018l0.842,1.611c0.108,0.206,0.362,0.287,0.569,0.179c0.206-0.108,0.286-0.362,0.178-0.569
					l-0.342-0.654c2.264,0.68,4.694,0.548,6.87-0.375C85.219,111.353,85.32,111.105,85.229,110.892z"/>
			</g>
		</g>
		<g>
			<g>
				<path fill="#FFFFFF" d="M92.296,100.581c-0.166-0.164-0.431-0.164-0.595,0l-0.597,0.596c-0.348-3.688-2.689-6.888-6.098-8.336
					c-0.214-0.091-0.461,0.008-0.553,0.222c-0.091,0.214,0.009,0.461,0.224,0.552c3.058,1.3,5.183,4.14,5.568,7.441l-0.475-0.475
					c-0.167-0.162-0.434-0.157-0.595,0.01c-0.157,0.164-0.157,0.422,0,0.585l1.263,1.263c0.164,0.165,0.431,0.166,0.596,0.001
					c0,0,0,0,0-0.001l1.263-1.263C92.46,101.011,92.46,100.745,92.296,100.581z"/>
			</g>
		</g>
		<g>
			<g>
				<path fill="#FFFFFF" d="M77.671,93.157c-0.001-0.024-0.004-0.049-0.011-0.073c0-0.003-0.005-0.006-0.006-0.011
					c-0.002-0.003,0-0.006,0-0.01c-0.012-0.02-0.025-0.04-0.039-0.058c-0.014-0.024-0.03-0.048-0.048-0.069
					c-0.025-0.022-0.053-0.041-0.082-0.056c-0.015-0.012-0.031-0.023-0.048-0.034l-1.683-0.769c-0.216-0.088-0.462,0.015-0.55,0.229
					c-0.083,0.204,0.003,0.438,0.2,0.537l0.872,0.398c-3.283,1.757-5.331,5.179-5.328,8.901c0,0.233,0.188,0.421,0.421,0.421
					c0.233,0,0.421-0.188,0.421-0.421c-0.002-3.278,1.73-6.313,4.556-7.976l-0.304,0.637c-0.101,0.209-0.012,0.459,0.197,0.561
					c0.056,0.028,0.119,0.042,0.182,0.042c0.161-0.001,0.309-0.093,0.379-0.239l0.842-1.756c0-0.004,0-0.009,0.003-0.013
					c0.011-0.029,0.019-0.059,0.022-0.089c0.007-0.023,0.013-0.046,0.016-0.069C77.682,93.21,77.679,93.183,77.671,93.157z"/>
			</g>
		</g>
	</g>
	<g>
		<g>
			<g>
				<pattern  id="SVGID_5_" xlink:href="#Unnamed_Pattern_2" patternTransform="matrix(-1.5628 0 0 1.5628 -19070.7852 4426.168)">
				</pattern>
				<path fill="url(#SVGID_5_)" d="M395.481,237.303l-1.294-3.878c-0.452-1.355-1.604-2.354-3.01-2.61l-3.732-0.68v-0.289
					c0.649-0.376,1.214-0.88,1.664-1.479h1.128c0.923,0,1.676-0.75,1.676-1.674v-6.703c0-4.003-3.258-7.26-7.26-7.26
					c-4.005,0-7.262,3.257-7.262,7.26v3.91c0,1.076,0.767,1.978,1.781,2.188c0.313,1.606,1.316,2.964,2.688,3.759v0.289l-3.733,0.68
					c-1.405,0.257-2.559,1.255-3.01,2.61l-0.223,0.67l-1.902-1.9c-0.219-0.22-0.219-0.574,0-0.792l2.205-2.205l-4.14-4.142
					l-2.493,2.493c-0.739,0.739-1.145,1.722-1.145,2.765c0,1.046,0.405,2.026,1.145,2.764l7.548,7.548
					c0.738,0.739,1.72,1.146,2.764,1.146c1.045,0,2.026-0.407,2.747-1.128l2.723-2.492l-0.851-0.849H395.481z M390.796,226.693
					c0,0.308-0.252,0.559-0.56,0.559h-0.47c0.163-0.369,0.285-0.759,0.364-1.164c0.239-0.05,0.459-0.145,0.665-0.264V226.693z
					 M390.237,224.862v-1.924c0.332,0.194,0.56,0.55,0.56,0.962S390.569,224.667,390.237,224.862z M379.067,224.862
					c-0.332-0.194-0.559-0.55-0.559-0.962s0.227-0.768,0.559-0.962V224.862z M379.067,221.107v0.638
					c-0.198,0.051-0.386,0.129-0.559,0.231v-1.986c0-3.387,2.756-6.144,6.145-6.144c3.387,0,6.144,2.757,6.144,6.144v1.986
					c-0.174-0.102-0.36-0.18-0.56-0.231v-0.638h-0.559c-1.651,0-3.204-0.644-4.372-1.811l-0.653-0.654l-0.655,0.654
					c-1.168,1.167-2.721,1.811-4.373,1.811H379.067z M380.184,225.017v-2.813c1.677-0.126,3.241-0.819,4.469-1.985
					c1.227,1.167,2.79,1.859,4.468,1.985v2.813c0,0.814-0.223,1.576-0.604,2.234h-3.863v1.115h2.944
					c-0.787,0.695-1.817,1.119-2.944,1.119C382.188,229.486,380.184,227.481,380.184,225.017z M386.328,230.344v0.027l-1.675,1.676
					l-1.677-1.676v-0.027c0.53,0.168,1.092,0.258,1.677,0.258C385.236,230.602,385.798,230.512,386.328,230.344z M376.175,233.778
					c0.322-0.968,1.146-1.683,2.151-1.864l3.903-0.71l2.423,2.423l2.421-2.423l3.902,0.71c1.005,0.184,1.828,0.896,2.15,1.864
					l0.804,2.41h-11.552l-2.177-2.177l-2.415,2.188c-0.212,0.211-0.58,0.211-0.79,0l-1.221-1.221L376.175,233.778z M371.056,226.636
					l2.562,2.562l-0.606,0.605l-2.563-2.561L371.056,226.636z M380.849,239.838c-0.526,0.526-1.229,0.816-1.974,0.816
					s-1.447-0.29-1.976-0.817l-7.549-7.548c-0.527-0.528-0.817-1.229-0.817-1.974c0-0.747,0.29-1.448,0.817-1.976l0.31-0.308
					l2.56,2.562l-0.02,0.02c-0.653,0.654-0.653,1.718,0,2.37l4.004,4.005c0.318,0.317,0.738,0.49,1.186,0.49
					c0.448,0,0.87-0.173,1.165-0.471l0.042-0.038l2.573,2.574L380.849,239.838z M381.995,238.788l-2.567-2.566l0.737-0.667
					l2.563,2.563L381.995,238.788z"/>
			</g>
		</g>
		<g>
			<g>
				<pattern  id="SVGID_6_" xlink:href="#Unnamed_Pattern_2" patternTransform="matrix(-1.5628 0 0 1.5628 -19070.7852 4426.168)">
				</pattern>
				<path fill="url(#SVGID_6_)" d="M400.291,207.145h-7.819c-0.925,0-1.675,0.752-1.675,1.676v4.468c0,0.923,0.75,1.675,1.675,1.675
					h1.491l-0.578,3.368l5.391-3.368h1.516c0.923,0,1.676-0.752,1.676-1.675v-4.468
					C401.966,207.897,401.213,207.145,400.291,207.145z M400.849,213.289c0,0.307-0.251,0.558-0.559,0.558h-1.836l-3.548,2.217
					l0.381-2.217h-2.816c-0.309,0-0.559-0.25-0.559-0.558v-4.468c0-0.308,0.25-0.559,0.559-0.559h7.819
					c0.308,0,0.559,0.25,0.559,0.559V213.289z"/>
			</g>
		</g>
		<g>
			<g>
				<pattern  id="SVGID_7_" xlink:href="#Unnamed_Pattern_2" patternTransform="matrix(-1.5628 0 0 1.5628 -19070.7852 4426.168)">
				</pattern>
				<rect x="393.029" y="209.378" fill="url(#SVGID_7_)" width="6.703" height="1.117"/>
			</g>
		</g>
		<g>
			<g>
				<pattern  id="SVGID_8_" xlink:href="#Unnamed_Pattern_2" patternTransform="matrix(-1.5628 0 0 1.5628 -19070.7852 4426.168)">
				</pattern>
				<rect x="393.029" y="211.613" fill="url(#SVGID_8_)" width="4.469" height="1.117"/>
			</g>
		</g>
		<g>
			<g>
				<pattern  id="SVGID_9_" xlink:href="#Unnamed_Pattern_2" patternTransform="matrix(-1.5628 0 0 1.5628 -19070.7852 4426.168)">
				</pattern>
				<rect x="398.615" y="211.613" fill="url(#SVGID_9_)" width="1.117" height="1.117"/>
			</g>
		</g>
		<g>
			<g>
				<pattern  id="SVGID_10_" xlink:href="#Unnamed_Pattern_2" patternTransform="matrix(-1.5628 0 0 1.5628 -19070.7852 4426.168)">
				</pattern>
				<path fill="url(#SVGID_10_)" d="M384.653,208.82c-7.299,0-13.585,5.048-15.219,12.088l-1.059-1.764l-0.958,0.575l1.964,3.271
					l3.271-1.963l-0.575-0.958l-1.514,0.908c1.584-6.441,7.376-11.041,14.089-11.041c1.466,0,2.914,0.218,4.302,0.648l0.331-1.066
					C387.79,209.055,386.23,208.82,384.653,208.82z"/>
			</g>
		</g>
		<g>
			<g>
				<pattern  id="SVGID_11_" xlink:href="#Unnamed_Pattern_2" patternTransform="matrix(-1.5628 0 0 1.5628 -19070.7852 4426.168)">
				</pattern>
				<path fill="url(#SVGID_11_)" d="M401.695,219.511l-3.271-1.963l-1.963,3.271l0.957,0.575l0.978-1.629
					c0.515,1.505,0.778,3.08,0.778,4.693c0,3.321-1.15,6.569-3.238,9.143l0.867,0.704c2.249-2.772,3.488-6.271,3.488-9.847
					c0-1.708-0.276-3.377-0.813-4.974l1.643,0.984L401.695,219.511z"/>
			</g>
		</g>
	</g>
</g>
<g id="Designed_by_Freepik">
</g>
</svg>
