<?xml version="1.0" encoding="UTF-8" standalone="no"?>
<!DOCTYPE svg PUBLIC "-//W3C//DTD SVG 1.1//EN" "http://www.w3.org/Graphics/SVG/1.1/DTD/svg11.dtd">
<svg version="1.1" xmlns="http://www.w3.org/2000/svg" xmlns:xlink="http://www.w3.org/1999/xlink" preserveAspectRatio="xMidYMid meet" viewBox="0 0 640 640" width="640" height="640"><defs><path d="" id="a6JxlEVkm"></path><path d="" id="a3pITQtPzb"></path><path d="M418.53 215.45C422.61 208.65 417.71 200 409.78 200C365.39 200 250.4 200 206.05 200C198.02 200 193.06 208.76 197.19 215.65C219.31 252.52 277.91 350.19 300.44 387.74C303.77 393.29 311.83 393.29 315.16 387.74C337.69 350.19 396.38 252.36 418.53 215.45Z" id="a4ntIdw7HD"></path><path d="M256.93 314.69C256.93 314.69 256.93 314.69 256.93 314.69C270.29 310.68 284.49 310.45 297.97 314.04C302.46 315.23 293.85 312.94 297.97 314.04C312.78 317.97 328.22 318.93 343.39 316.84C345.49 316.56 350.72 315.84 359.09 314.69L344.79 340C344.39 340.1 344.14 340.16 344.04 340.19C333.66 342.75 322.82 342.69 312.47 340.04C306.88 338.6 304.25 337.92 298.26 336.38C289.45 334.12 280.1 335.42 272.25 340C272.25 340 272.25 340 272.25 340L256.93 314.69Z" id="a11lchada"></path><path d="" id="aidvfWtrp"></path><path d="M202.29 200.91C229.07 243.36 260.77 265.38 297.38 266.99C330.78 268.45 369.97 251.22 414.96 215.29C421.18 210.32 417.67 200.3 409.71 200.3C382.58 200.29 314.74 200.26 206.19 200.22" id="bWGTywtU5"></path><path d="M351.91 313.88C283.2 238.37 268.64 247.07 308.24 340L368.24 200L248.24 200" id="a1WUaRSzUK"></path><path d="M290.21 290.89C299.51 304.39 319.71 303.55 327.87 289.33C331.34 283.28 340.02 268.16 353.91 243.96C353.91 243.96 353.91 243.96 353.91 243.96C361.66 228.13 373.85 214.89 388.99 205.87C390.3 205.09 393.59 203.13 398.85 200L217.62 200C229.97 213.16 237.68 221.39 240.77 224.68C250.33 234.88 259.12 245.78 267.05 257.29C275.7 269.83 283.2 280.71 290.21 290.89Z" id="b4UxIstLV3"></path></defs><g><g><g><g><use xlink:href="#a6JxlEVkm" opacity="1" fill-opacity="0" stroke="#000000" stroke-width="1" stroke-opacity="1"></use></g></g><g><g><use xlink:href="#a3pITQtPzb" opacity="1" fill-opacity="0" stroke="#000000" stroke-width="1" stroke-opacity="1"></use></g></g><g><g><g><filter id="shadow9292308" x="150.7" y="155" width="314.3" height="281.9" filterUnits="userSpaceOnUse" primitiveUnits="userSpaceOnUse"><feFlood></feFlood><feComposite in2="SourceAlpha" operator="in"></feComposite><feGaussianBlur stdDeviation="4.47"></feGaussianBlur><feOffset dx="0" dy="0" result="afterOffset"></feOffset><feFlood flood-color="#8a45cc" flood-opacity="0.5"></feFlood><feComposite in2="afterOffset" operator="in"></feComposite><feMorphology operator="dilate" radius="0"></feMorphology><feComposite in2="SourceAlpha" operator="out"></feComposite></filter><path d="M418.53 215.45C422.61 208.65 417.71 200 409.78 200C365.39 200 250.4 200 206.05 200C198.02 200 193.06 208.76 197.19 215.65C219.31 252.52 277.91 350.19 300.44 387.74C303.77 393.29 311.83 393.29 315.16 387.74C337.69 350.19 396.38 252.36 418.53 215.45Z" id="a7SgMejB4" fill="white" fill-opacity="1" filter="url(#shadow9292308)"></path></g><use xlink:href="#a4ntIdw7HD" opacity="0.94" fill="#8609ba" fill-opacity="1"></use><g><use xlink:href="#a4ntIdw7HD" opacity="0.94" fill-opacity="0" stroke="#000000" stroke-width="0" stroke-opacity="1"></use></g></g><g><g></g><use xlink:href="#a11lchada" opacity="1" fill="#cda2ec" fill-opacity="1"></use><g><use xlink:href="#a11lchada" opacity="1" fill-opacity="0" stroke="#000000" stroke-width="0" stroke-opacity="1"></use></g><g></g></g><g><g><use xlink:href="#aidvfWtrp" opacity="1" fill-opacity="0" stroke="#000000" stroke-width="1" stroke-opacity="1"></use></g></g><g><g></g><use xlink:href="#bWGTywtU5" opacity="0.81" fill="#bc61e1" fill-opacity="1"></use><g><use xlink:href="#bWGTywtU5" opacity="0.81" fill-opacity="0" stroke="#000000" stroke-width="0" stroke-opacity="1"></use></g><g></g></g><g><g><use xlink:href="#a1WUaRSzUK" opacity="1" fill-opacity="0" stroke="#000000" stroke-width="0" stroke-opacity="1"></use></g></g><g><g></g><use xlink:href="#b4UxIstLV3" opacity="0.51" fill="#c181f0" fill-opacity="1"></use><g><use xlink:href="#b4UxIstLV3" opacity="0.51" fill-opacity="0" stroke="#000000" stroke-width="0" stroke-opacity="1"></use></g><g></g></g></g></g></g></svg>